<svg width="28" height="24" viewBox="0 0 28 24" fill="none" xmlns="http://www.w3.org/2000/svg">
<path d="M21.1322 0.657227C18.8088 0.657227 16.7563 1.82364 15.5298 3.60095C15.5298 3.60095 15.1157 4.22068 14.4589 4.22068C13.8026 4.22068 13.3885 3.60095 13.3885 3.60095C12.1614 1.82364 10.1101 0.657227 7.78614 0.657227C4.03005 0.657227 0.985596 3.70168 0.985596 7.45895C0.985596 8.34613 1.15997 9.19031 1.46866 9.96733C3.3738 15.8831 11.8945 22.8379 14.4589 23.0918C17.0238 22.8379 25.5433 15.8831 27.4496 9.96733C27.7583 9.1909 27.9327 8.34613 27.9327 7.45895C27.9327 3.70168 24.8882 0.657227 21.1322 0.657227Z" fill="white"/>
</svg>
